<svg version="1.1" id="Map" class="gen-by-synoptic-designer" xmlns="http://www.w3.org/2000/svg" xmlns:xlink="http://www.w3.org/1999/xlink" viewBox="0 0 755 628" xml:space="preserve"><image width="755" height="628" xlink:href="" /><polygon id="Shoulder_s" title="" points="91,115,97,112,104,110,110,108,117,107,124,104,119,127,104,143,95,157,70,148,71,140,72,133,77,126,82,119" /><polygon id="Shoulder_s" title="" points="232,122,224,116,217,112,208,110,201,108,194,105,187,103,190,127,204,132,218,156,240,152,239,139,235,129" /><polygon id="Chest" title="" points="100,164,99,154,109,141,121,129,126,105,135,101,156,107,180,99,187,103,190,127,204,132,216,151,213,163,210,172,203,181,192,184,183,183,175,178,137,177,128,184,118,185,109,183,104,177,101,172" /><polygon id="Neck_Soft_Tissue" title="" points="155,106,181,98,177,92,175,83,169,89,162,94,152,94,143,91,135,85,134,92,132,99" /></svg>